<svg width="186" height="26" viewBox="0 0 186 26" fill="none" xmlns="http://www.w3.org/2000/svg">
<g id="Layer 3">
<g id="Layer 1">
<g id="Vector">
<path d="M56.4295 21.9762V17.8509H64.7046V14.6444H56.4295V14.6215H52.3353V25.2811H66.1327V21.973L56.4295 21.9762ZM56.4295 10.7746H66.1294V7.46484H52.332V10.7762H56.4262L56.4295 10.7746Z" fill="#0D0F11"/>
<path d="M56.4295 21.9762V17.8509H64.7046V14.6444H56.4295V14.6215H52.3353V25.2811H66.1327V21.973L56.4295 21.9762ZM56.4295 10.7746H66.1294V7.46484H52.332V10.7762H56.4262L56.4295 10.7746Z" fill="black" fill-opacity="0.2"/>
<path d="M56.4295 21.9762V17.8509H64.7046V14.6444H56.4295V14.6215H52.3353V25.2811H66.1327V21.973L56.4295 21.9762ZM56.4295 10.7746H66.1294V7.46484H52.332V10.7762H56.4262L56.4295 10.7746Z" fill="black" fill-opacity="0.2"/>
<path d="M56.4295 21.9762V17.8509H64.7046V14.6444H56.4295V14.6215H52.3353V25.2811H66.1327V21.973L56.4295 21.9762ZM56.4295 10.7746H66.1294V7.46484H52.332V10.7762H56.4262L56.4295 10.7746Z" fill="black" fill-opacity="0.2"/>
<path d="M56.4295 21.9762V17.8509H64.7046V14.6444H56.4295V14.6215H52.3353V25.2811H66.1327V21.973L56.4295 21.9762ZM56.4295 10.7746H66.1294V7.46484H52.332V10.7762H56.4262L56.4295 10.7746Z" fill="black" fill-opacity="0.2"/>
<path d="M56.4295 21.9762V17.8509H64.7046V14.6444H56.4295V14.6215H52.3353V25.2811H66.1327V21.973L56.4295 21.9762ZM56.4295 10.7746H66.1294V7.46484H52.332V10.7762H56.4262L56.4295 10.7746Z" fill="black" fill-opacity="0.2"/>
<path d="M56.4295 21.9762V17.8509H64.7046V14.6444H56.4295V14.6215H52.3353V25.2811H66.1327V21.973L56.4295 21.9762ZM56.4295 10.7746H66.1294V7.46484H52.332V10.7762H56.4262L56.4295 10.7746Z" fill="black" fill-opacity="0.2"/>
</g>
<g id="Vector_2">
<path d="M153.554 21.9762V17.8509H161.83V14.6444H153.554V14.6215H149.46V25.2811H163.258V21.973L153.554 21.9762ZM153.554 10.7746H163.254V7.46484H149.457V10.7762H153.551L153.554 10.7746Z" fill="#0D0F11"/>
<path d="M153.554 21.9762V17.8509H161.83V14.6444H153.554V14.6215H149.46V25.2811H163.258V21.973L153.554 21.9762ZM153.554 10.7746H163.254V7.46484H149.457V10.7762H153.551L153.554 10.7746Z" fill="black" fill-opacity="0.2"/>
<path d="M153.554 21.9762V17.8509H161.83V14.6444H153.554V14.6215H149.46V25.2811H163.258V21.973L153.554 21.9762ZM153.554 10.7746H163.254V7.46484H149.457V10.7762H153.551L153.554 10.7746Z" fill="black" fill-opacity="0.2"/>
<path d="M153.554 21.9762V17.8509H161.83V14.6444H153.554V14.6215H149.46V25.2811H163.258V21.973L153.554 21.9762ZM153.554 10.7746H163.254V7.46484H149.457V10.7762H153.551L153.554 10.7746Z" fill="black" fill-opacity="0.2"/>
<path d="M153.554 21.9762V17.8509H161.83V14.6444H153.554V14.6215H149.46V25.2811H163.258V21.973L153.554 21.9762ZM153.554 10.7746H163.254V7.46484H149.457V10.7762H153.551L153.554 10.7746Z" fill="black" fill-opacity="0.2"/>
<path d="M153.554 21.9762V17.8509H161.83V14.6444H153.554V14.6215H149.46V25.2811H163.258V21.973L153.554 21.9762ZM153.554 10.7746H163.254V7.46484H149.457V10.7762H153.551L153.554 10.7746Z" fill="black" fill-opacity="0.2"/>
<path d="M153.554 21.9762V17.8509H161.83V14.6444H153.554V14.6215H149.46V25.2811H163.258V21.973L153.554 21.9762ZM153.554 10.7746H163.254V7.46484H149.457V10.7762H153.551L153.554 10.7746Z" fill="black" fill-opacity="0.2"/>
</g>
<g id="Vector_3">
<path d="M111.043 19.4613C112.353 18.8996 113.365 18.0284 114.001 16.8967C114.526 15.9281 114.792 14.8396 114.77 13.7377C114.791 12.638 114.53 11.5513 114.014 10.5802C112.835 8.4136 110.321 7.16406 106.903 7.16406H99.0586V10.5802H106.67C109.232 10.5802 110.526 11.7463 110.526 13.7377C110.526 15.7291 109.232 16.8967 106.67 16.8967H99.0586V25.2816H103.251V20.2359H107.103L110.603 25.2816H115.108L111.043 19.4613Z" fill="#0D0F11"/>
<path d="M111.043 19.4613C112.353 18.8996 113.365 18.0284 114.001 16.8967C114.526 15.9281 114.792 14.8396 114.77 13.7377C114.791 12.638 114.53 11.5513 114.014 10.5802C112.835 8.4136 110.321 7.16406 106.903 7.16406H99.0586V10.5802H106.67C109.232 10.5802 110.526 11.7463 110.526 13.7377C110.526 15.7291 109.232 16.8967 106.67 16.8967H99.0586V25.2816H103.251V20.2359H107.103L110.603 25.2816H115.108L111.043 19.4613Z" fill="black" fill-opacity="0.2"/>
<path d="M111.043 19.4613C112.353 18.8996 113.365 18.0284 114.001 16.8967C114.526 15.9281 114.792 14.8396 114.77 13.7377C114.791 12.638 114.53 11.5513 114.014 10.5802C112.835 8.4136 110.321 7.16406 106.903 7.16406H99.0586V10.5802H106.67C109.232 10.5802 110.526 11.7463 110.526 13.7377C110.526 15.7291 109.232 16.8967 106.67 16.8967H99.0586V25.2816H103.251V20.2359H107.103L110.603 25.2816H115.108L111.043 19.4613Z" fill="black" fill-opacity="0.2"/>
<path d="M111.043 19.4613C112.353 18.8996 113.365 18.0284 114.001 16.8967C114.526 15.9281 114.792 14.8396 114.77 13.7377C114.791 12.638 114.53 11.5513 114.014 10.5802C112.835 8.4136 110.321 7.16406 106.903 7.16406H99.0586V10.5802H106.67C109.232 10.5802 110.526 11.7463 110.526 13.7377C110.526 15.7291 109.232 16.8967 106.67 16.8967H99.0586V25.2816H103.251V20.2359H107.103L110.603 25.2816H115.108L111.043 19.4613Z" fill="black" fill-opacity="0.2"/>
<path d="M111.043 19.4613C112.353 18.8996 113.365 18.0284 114.001 16.8967C114.526 15.9281 114.792 14.8396 114.77 13.7377C114.791 12.638 114.53 11.5513 114.014 10.5802C112.835 8.4136 110.321 7.16406 106.903 7.16406H99.0586V10.5802H106.67C109.232 10.5802 110.526 11.7463 110.526 13.7377C110.526 15.7291 109.232 16.8967 106.67 16.8967H99.0586V25.2816H103.251V20.2359H107.103L110.603 25.2816H115.108L111.043 19.4613Z" fill="black" fill-opacity="0.2"/>
<path d="M111.043 19.4613C112.353 18.8996 113.365 18.0284 114.001 16.8967C114.526 15.9281 114.792 14.8396 114.77 13.7377C114.791 12.638 114.53 11.5513 114.014 10.5802C112.835 8.4136 110.321 7.16406 106.903 7.16406H99.0586V10.5802H106.67C109.232 10.5802 110.526 11.7463 110.526 13.7377C110.526 15.7291 109.232 16.8967 106.67 16.8967H99.0586V25.2816H103.251V20.2359H107.103L110.603 25.2816H115.108L111.043 19.4613Z" fill="black" fill-opacity="0.2"/>
<path d="M111.043 19.4613C112.353 18.8996 113.365 18.0284 114.001 16.8967C114.526 15.9281 114.792 14.8396 114.77 13.7377C114.791 12.638 114.53 11.5513 114.014 10.5802C112.835 8.4136 110.321 7.16406 106.903 7.16406H99.0586V10.5802H106.67C109.232 10.5802 110.526 11.7463 110.526 13.7377C110.526 15.7291 109.232 16.8967 106.67 16.8967H99.0586V25.2816H103.251V20.2359H107.103L110.603 25.2816H115.108L111.043 19.4613Z" fill="black" fill-opacity="0.2"/>
</g>
<g id="Vector_4">
<path d="M171.629 23.2828L172.987 20.2695C174.444 21.3324 176.617 22.071 178.691 22.071C181.062 22.071 182.025 21.2816 182.025 20.2187C182.025 16.9844 171.974 19.2067 171.974 12.7854C171.974 9.84738 174.344 7.40234 179.259 7.40234C181.432 7.40234 183.654 7.91985 185.261 8.93356L184.026 11.9714C182.42 11.0576 180.765 10.6122 179.234 10.6122C176.863 10.6122 175.949 11.5014 175.949 12.5888C175.949 15.7741 186.001 13.5714 186.001 19.9223C186.001 22.8112 183.605 25.2808 178.666 25.2808C175.926 25.2791 173.162 24.4685 171.629 23.2828Z" fill="#0D0F11"/>
<path d="M171.629 23.2828L172.987 20.2695C174.444 21.3324 176.617 22.071 178.691 22.071C181.062 22.071 182.025 21.2816 182.025 20.2187C182.025 16.9844 171.974 19.2067 171.974 12.7854C171.974 9.84738 174.344 7.40234 179.259 7.40234C181.432 7.40234 183.654 7.91985 185.261 8.93356L184.026 11.9714C182.42 11.0576 180.765 10.6122 179.234 10.6122C176.863 10.6122 175.949 11.5014 175.949 12.5888C175.949 15.7741 186.001 13.5714 186.001 19.9223C186.001 22.8112 183.605 25.2808 178.666 25.2808C175.926 25.2791 173.162 24.4685 171.629 23.2828Z" fill="black" fill-opacity="0.2"/>
<path d="M171.629 23.2828L172.987 20.2695C174.444 21.3324 176.617 22.071 178.691 22.071C181.062 22.071 182.025 21.2816 182.025 20.2187C182.025 16.9844 171.974 19.2067 171.974 12.7854C171.974 9.84738 174.344 7.40234 179.259 7.40234C181.432 7.40234 183.654 7.91985 185.261 8.93356L184.026 11.9714C182.42 11.0576 180.765 10.6122 179.234 10.6122C176.863 10.6122 175.949 11.5014 175.949 12.5888C175.949 15.7741 186.001 13.5714 186.001 19.9223C186.001 22.8112 183.605 25.2808 178.666 25.2808C175.926 25.2791 173.162 24.4685 171.629 23.2828Z" fill="black" fill-opacity="0.2"/>
<path d="M171.629 23.2828L172.987 20.2695C174.444 21.3324 176.617 22.071 178.691 22.071C181.062 22.071 182.025 21.2816 182.025 20.2187C182.025 16.9844 171.974 19.2067 171.974 12.7854C171.974 9.84738 174.344 7.40234 179.259 7.40234C181.432 7.40234 183.654 7.91985 185.261 8.93356L184.026 11.9714C182.42 11.0576 180.765 10.6122 179.234 10.6122C176.863 10.6122 175.949 11.5014 175.949 12.5888C175.949 15.7741 186.001 13.5714 186.001 19.9223C186.001 22.8112 183.605 25.2808 178.666 25.2808C175.926 25.2791 173.162 24.4685 171.629 23.2828Z" fill="black" fill-opacity="0.2"/>
<path d="M171.629 23.2828L172.987 20.2695C174.444 21.3324 176.617 22.071 178.691 22.071C181.062 22.071 182.025 21.2816 182.025 20.2187C182.025 16.9844 171.974 19.2067 171.974 12.7854C171.974 9.84738 174.344 7.40234 179.259 7.40234C181.432 7.40234 183.654 7.91985 185.261 8.93356L184.026 11.9714C182.42 11.0576 180.765 10.6122 179.234 10.6122C176.863 10.6122 175.949 11.5014 175.949 12.5888C175.949 15.7741 186.001 13.5714 186.001 19.9223C186.001 22.8112 183.605 25.2808 178.666 25.2808C175.926 25.2791 173.162 24.4685 171.629 23.2828Z" fill="black" fill-opacity="0.2"/>
<path d="M171.629 23.2828L172.987 20.2695C174.444 21.3324 176.617 22.071 178.691 22.071C181.062 22.071 182.025 21.2816 182.025 20.2187C182.025 16.9844 171.974 19.2067 171.974 12.7854C171.974 9.84738 174.344 7.40234 179.259 7.40234C181.432 7.40234 183.654 7.91985 185.261 8.93356L184.026 11.9714C182.42 11.0576 180.765 10.6122 179.234 10.6122C176.863 10.6122 175.949 11.5014 175.949 12.5888C175.949 15.7741 186.001 13.5714 186.001 19.9223C186.001 22.8112 183.605 25.2808 178.666 25.2808C175.926 25.2791 173.162 24.4685 171.629 23.2828Z" fill="black" fill-opacity="0.2"/>
<path d="M171.629 23.2828L172.987 20.2695C174.444 21.3324 176.617 22.071 178.691 22.071C181.062 22.071 182.025 21.2816 182.025 20.2187C182.025 16.9844 171.974 19.2067 171.974 12.7854C171.974 9.84738 174.344 7.40234 179.259 7.40234C181.432 7.40234 183.654 7.91985 185.261 8.93356L184.026 11.9714C182.42 11.0576 180.765 10.6122 179.234 10.6122C176.863 10.6122 175.949 11.5014 175.949 12.5888C175.949 15.7741 186.001 13.5714 186.001 19.9223C186.001 22.8112 183.605 25.2808 178.666 25.2808C175.926 25.2791 173.162 24.4685 171.629 23.2828Z" fill="black" fill-opacity="0.2"/>
</g>
<g id="Vector_5">
<path d="M44.5611 7.46484L36.8477 25.2811H32.7748L25.0859 7.46484H29.542L34.9644 20.1928L40.462 7.46484H44.5611Z" fill="#0D0F11"/>
<path d="M44.5611 7.46484L36.8477 25.2811H32.7748L25.0859 7.46484H29.542L34.9644 20.1928L40.462 7.46484H44.5611Z" fill="black" fill-opacity="0.2"/>
<path d="M44.5611 7.46484L36.8477 25.2811H32.7748L25.0859 7.46484H29.542L34.9644 20.1928L40.462 7.46484H44.5611Z" fill="black" fill-opacity="0.2"/>
<path d="M44.5611 7.46484L36.8477 25.2811H32.7748L25.0859 7.46484H29.542L34.9644 20.1928L40.462 7.46484H44.5611Z" fill="black" fill-opacity="0.2"/>
<path d="M44.5611 7.46484L36.8477 25.2811H32.7748L25.0859 7.46484H29.542L34.9644 20.1928L40.462 7.46484H44.5611Z" fill="black" fill-opacity="0.2"/>
<path d="M44.5611 7.46484L36.8477 25.2811H32.7748L25.0859 7.46484H29.542L34.9644 20.1928L40.462 7.46484H44.5611Z" fill="black" fill-opacity="0.2"/>
<path d="M44.5611 7.46484L36.8477 25.2811H32.7748L25.0859 7.46484H29.542L34.9644 20.1928L40.462 7.46484H44.5611Z" fill="black" fill-opacity="0.2"/>
</g>
<g id="Vector_6">
<path d="M86.5899 19.4613C87.8354 18.9621 88.877 18.0589 89.5476 16.8967C90.0732 15.9281 90.3384 14.8396 90.3173 13.7377C90.3376 12.638 90.0772 11.5513 89.5607 10.5802C88.3815 8.4136 85.8677 7.16406 82.4499 7.16406H74.6055V10.5802H82.2108C84.7721 10.5802 86.0675 11.7463 86.0675 13.7377C86.0675 15.7291 84.7787 16.8967 82.2108 16.8967H74.6055V25.2816H78.7979V20.2359H82.6546L86.1494 25.2816H90.6546L86.5899 19.4613Z" fill="#0D0F11"/>
<path d="M86.5899 19.4613C87.8354 18.9621 88.877 18.0589 89.5476 16.8967C90.0732 15.9281 90.3384 14.8396 90.3173 13.7377C90.3376 12.638 90.0772 11.5513 89.5607 10.5802C88.3815 8.4136 85.8677 7.16406 82.4499 7.16406H74.6055V10.5802H82.2108C84.7721 10.5802 86.0675 11.7463 86.0675 13.7377C86.0675 15.7291 84.7787 16.8967 82.2108 16.8967H74.6055V25.2816H78.7979V20.2359H82.6546L86.1494 25.2816H90.6546L86.5899 19.4613Z" fill="black" fill-opacity="0.2"/>
<path d="M86.5899 19.4613C87.8354 18.9621 88.877 18.0589 89.5476 16.8967C90.0732 15.9281 90.3384 14.8396 90.3173 13.7377C90.3376 12.638 90.0772 11.5513 89.5607 10.5802C88.3815 8.4136 85.8677 7.16406 82.4499 7.16406H74.6055V10.5802H82.2108C84.7721 10.5802 86.0675 11.7463 86.0675 13.7377C86.0675 15.7291 84.7787 16.8967 82.2108 16.8967H74.6055V25.2816H78.7979V20.2359H82.6546L86.1494 25.2816H90.6546L86.5899 19.4613Z" fill="black" fill-opacity="0.2"/>
<path d="M86.5899 19.4613C87.8354 18.9621 88.877 18.0589 89.5476 16.8967C90.0732 15.9281 90.3384 14.8396 90.3173 13.7377C90.3376 12.638 90.0772 11.5513 89.5607 10.5802C88.3815 8.4136 85.8677 7.16406 82.4499 7.16406H74.6055V10.5802H82.2108C84.7721 10.5802 86.0675 11.7463 86.0675 13.7377C86.0675 15.7291 84.7787 16.8967 82.2108 16.8967H74.6055V25.2816H78.7979V20.2359H82.6546L86.1494 25.2816H90.6546L86.5899 19.4613Z" fill="black" fill-opacity="0.2"/>
<path d="M86.5899 19.4613C87.8354 18.9621 88.877 18.0589 89.5476 16.8967C90.0732 15.9281 90.3384 14.8396 90.3173 13.7377C90.3376 12.638 90.0772 11.5513 89.5607 10.5802C88.3815 8.4136 85.8677 7.16406 82.4499 7.16406H74.6055V10.5802H82.2108C84.7721 10.5802 86.0675 11.7463 86.0675 13.7377C86.0675 15.7291 84.7787 16.8967 82.2108 16.8967H74.6055V25.2816H78.7979V20.2359H82.6546L86.1494 25.2816H90.6546L86.5899 19.4613Z" fill="black" fill-opacity="0.2"/>
<path d="M86.5899 19.4613C87.8354 18.9621 88.877 18.0589 89.5476 16.8967C90.0732 15.9281 90.3384 14.8396 90.3173 13.7377C90.3376 12.638 90.0772 11.5513 89.5607 10.5802C88.3815 8.4136 85.8677 7.16406 82.4499 7.16406H74.6055V10.5802H82.2108C84.7721 10.5802 86.0675 11.7463 86.0675 13.7377C86.0675 15.7291 84.7787 16.8967 82.2108 16.8967H74.6055V25.2816H78.7979V20.2359H82.6546L86.1494 25.2816H90.6546L86.5899 19.4613Z" fill="black" fill-opacity="0.2"/>
<path d="M86.5899 19.4613C87.8354 18.9621 88.877 18.0589 89.5476 16.8967C90.0732 15.9281 90.3384 14.8396 90.3173 13.7377C90.3376 12.638 90.0772 11.5513 89.5607 10.5802C88.3815 8.4136 85.8677 7.16406 82.4499 7.16406H74.6055V10.5802H82.2108C84.7721 10.5802 86.0675 11.7463 86.0675 13.7377C86.0675 15.7291 84.7787 16.8967 82.2108 16.8967H74.6055V25.2816H78.7979V20.2359H82.6546L86.1494 25.2816H90.6546L86.5899 19.4613Z" fill="black" fill-opacity="0.2"/>
</g>
<path id="Vector_7" d="M132.651 7.40625V10.8159C135.736 10.8159 138.055 13.0611 138.055 16.3463C138.055 19.6315 135.733 21.8783 132.651 21.8783C129.568 21.8783 127.246 19.6298 127.246 16.3463H123.191C123.191 21.4837 127.191 25.2847 132.651 25.2847C138.081 25.2847 142.106 21.5082 142.106 16.3463C142.106 11.1844 138.081 7.40625 132.651 7.40625Z" fill="url(#paint0_linear_10040_47393)"/>
<path id="Vector_8" d="M124.634 7.8326L127.224 9.07559L129.596 7.45266L129.376 4.58674L126.785 3.34375L124.414 4.96668L124.634 7.8326Z" fill="url(#paint1_linear_10040_47393)"/>
<path id="Vector_9" d="M124.527 12.2656L125.775 12.8633L126.916 12.0821L126.81 10.7032L125.563 10.1055L124.422 10.8866L124.527 12.2656Z" fill="url(#paint2_linear_10040_47393)"/>
<path id="Vector_10" opacity="0.7" d="M121.996 6.66936L122.482 6.59731L122.666 6.1404L122.361 5.75391L121.873 5.82433L121.691 6.28124L121.996 6.66936Z" fill="url(#paint3_linear_10040_47393)"/>
<path id="Vector_11" opacity="0.6" d="M121.157 10.5467L122.06 10.9791L122.885 10.4141L122.808 9.41672L121.906 8.98438L121.082 9.54937L121.157 10.5467Z" fill="url(#paint4_linear_10040_47393)"/>
<path id="Vector_12" opacity="0.9" d="M127.45 2.25589L128.272 2.13634L128.578 1.36664L128.066 0.714844L127.244 0.834394L126.938 1.6041L127.45 2.25589Z" fill="url(#paint5_linear_10040_47393)"/>
<g id="Vector_13">
<path d="M12.1302 7.29688H8.02458L0 25.2818H4.26613L5.85958 21.4283H5.89561L7.20575 18.2676H7.18773L10.0487 11.3829L10.0635 11.4173V11.4074L15.8379 25.2818H20.1745L12.1302 7.29688Z" fill="#0D0F11"/>
<path d="M12.1302 7.29688H8.02458L0 25.2818H4.26613L5.85958 21.4283H5.89561L7.20575 18.2676H7.18773L10.0487 11.3829L10.0635 11.4173V11.4074L15.8379 25.2818H20.1745L12.1302 7.29688Z" fill="black" fill-opacity="0.2"/>
<path d="M12.1302 7.29688H8.02458L0 25.2818H4.26613L5.85958 21.4283H5.89561L7.20575 18.2676H7.18773L10.0487 11.3829L10.0635 11.4173V11.4074L15.8379 25.2818H20.1745L12.1302 7.29688Z" fill="black" fill-opacity="0.2"/>
<path d="M12.1302 7.29688H8.02458L0 25.2818H4.26613L5.85958 21.4283H5.89561L7.20575 18.2676H7.18773L10.0487 11.3829L10.0635 11.4173V11.4074L15.8379 25.2818H20.1745L12.1302 7.29688Z" fill="black" fill-opacity="0.2"/>
<path d="M12.1302 7.29688H8.02458L0 25.2818H4.26613L5.85958 21.4283H5.89561L7.20575 18.2676H7.18773L10.0487 11.3829L10.0635 11.4173V11.4074L15.8379 25.2818H20.1745L12.1302 7.29688Z" fill="black" fill-opacity="0.2"/>
<path d="M12.1302 7.29688H8.02458L0 25.2818H4.26613L5.85958 21.4283H5.89561L7.20575 18.2676H7.18773L10.0487 11.3829L10.0635 11.4173V11.4074L15.8379 25.2818H20.1745L12.1302 7.29688Z" fill="black" fill-opacity="0.2"/>
<path d="M12.1302 7.29688H8.02458L0 25.2818H4.26613L5.85958 21.4283H5.89561L7.20575 18.2676H7.18773L10.0487 11.3829L10.0635 11.4173V11.4074L15.8379 25.2818H20.1745L12.1302 7.29688Z" fill="black" fill-opacity="0.2"/>
</g>
</g>
</g>
<defs>
<linearGradient id="paint0_linear_10040_47393" x1="123.191" y1="16.3463" x2="142.106" y2="16.3463" gradientUnits="userSpaceOnUse">
<stop stop-color="#52E3C9"/>
<stop offset="1" stop-color="#687BFC"/>
</linearGradient>
<linearGradient id="paint1_linear_10040_47393" x1="126.7" y1="13.0961" x2="127.319" y2="-0.868337" gradientUnits="userSpaceOnUse">
<stop stop-color="#52E3C9"/>
<stop offset="1" stop-color="#687BFC"/>
</linearGradient>
<linearGradient id="paint2_linear_10040_47393" x1="125.599" y1="13.0484" x2="126.218" y2="-0.916048" gradientUnits="userSpaceOnUse">
<stop stop-color="#52E3C9"/>
<stop offset="1" stop-color="#687BFC"/>
</linearGradient>
<linearGradient id="paint3_linear_10040_47393" x1="121.947" y1="11.4333" x2="122.566" y2="-2.52943" gradientUnits="userSpaceOnUse">
<stop stop-color="#52E3C9"/>
<stop offset="1" stop-color="#687BFC"/>
</linearGradient>
<linearGradient id="paint4_linear_10040_47393" x1="121.568" y1="19.3295" x2="122.187" y2="5.36676" gradientUnits="userSpaceOnUse">
<stop stop-color="#52E3C9"/>
<stop offset="1" stop-color="#687BFC"/>
</linearGradient>
<linearGradient id="paint5_linear_10040_47393" x1="127.24" y1="13.1775" x2="127.86" y2="-0.7869" gradientUnits="userSpaceOnUse">
<stop stop-color="#52E3C9"/>
<stop offset="1" stop-color="#687BFC"/>
</linearGradient>
</defs>
</svg>
