<svg xmlns="http://www.w3.org/2000/svg" width="30" height="36" viewBox="0 0 30 36" fill="none" class="block h-[27.571px] w-[27.571px] cursor-pointer md:hidden"><path d="M16.5055 10.0195V14.8849C20.9082 14.8849 24.2172 18.0887 24.2172 22.7765C24.2172 27.4642 20.9035 30.6704 16.5055 30.6704C12.1076 30.6704 8.79388 27.4619 8.79388 22.7765H3.00781C3.00781 30.1072 8.71443 35.5311 16.5055 35.5311C24.2546 35.5311 29.9986 30.1423 29.9986 22.7765C29.9986 15.4107 24.2546 10.0195 16.5055 10.0195Z" fill="url(#paint0_linear_20253_29665)"></path><path d="M5.06704 10.628L8.76396 12.4017L12.1477 10.0858L11.8346 5.99633L8.13768 4.22266L4.75391 6.53849L5.06704 10.628Z" fill="url(#paint1_linear_20253_29665)"></path><path d="M4.91519 16.9534L6.69588 17.8064L8.32466 16.6917L8.17277 14.724L6.39441 13.8711L4.76562 14.9858L4.91519 16.9534Z" fill="url(#paint2_linear_20253_29665)"></path><path opacity="0.7" d="M1.30575 8.97037L1.9998 8.86755L2.26153 8.21556L1.82686 7.66406L1.13048 7.76455L0.871094 8.41653L1.30575 8.97037Z" fill="url(#paint3_linear_20253_29665)"></path><path opacity="0.6" d="M0.107501 14.5067L1.39511 15.1236L2.57289 14.3174L2.46306 12.8943L1.17545 12.2773L0 13.0836L0.107501 14.5067Z" fill="url(#paint4_linear_20253_29665)"></path><path opacity="0.9" d="M9.08691 2.67164L10.26 2.50105L10.697 1.40273L9.96557 0.472656L8.79246 0.643247L8.35547 1.74157L9.08691 2.67164Z" fill="url(#paint5_linear_20253_29665)"></path><defs><linearGradient id="paint0_linear_20253_29665" x1="3.00781" y1="22.7765" x2="29.9986" y2="22.7765" gradientUnits="userSpaceOnUse"><stop stop-color="#52E3C9"></stop><stop offset="1" stop-color="#687BFC"></stop></linearGradient><linearGradient id="paint1_linear_20253_29665" x1="8.01616" y1="18.1387" x2="8.8995" y2="-1.78775" gradientUnits="userSpaceOnUse"><stop stop-color="#52E3C9"></stop><stop offset="1" stop-color="#687BFC"></stop></linearGradient><linearGradient id="paint2_linear_20253_29665" x1="6.44583" y1="18.0704" x2="7.32916" y2="-1.85598" gradientUnits="userSpaceOnUse"><stop stop-color="#52E3C9"></stop><stop offset="1" stop-color="#687BFC"></stop></linearGradient><linearGradient id="paint3_linear_20253_29665" x1="1.23564" y1="15.7683" x2="2.11898" y2="-4.15578" gradientUnits="userSpaceOnUse"><stop stop-color="#52E3C9"></stop><stop offset="1" stop-color="#687BFC"></stop></linearGradient><linearGradient id="paint4_linear_20253_29665" x1="0.694049" y1="27.0393" x2="1.57738" y2="7.11522" gradientUnits="userSpaceOnUse"><stop stop-color="#52E3C9"></stop><stop offset="1" stop-color="#687BFC"></stop></linearGradient><linearGradient id="paint5_linear_20253_29665" x1="8.78779" y1="18.2562" x2="9.67112" y2="-1.67025" gradientUnits="userSpaceOnUse"><stop stop-color="#52E3C9"></stop><stop offset="1" stop-color="#687BFC"></stop></linearGradient></defs></svg>